<?xml version="1.0" encoding="iso-8859-1"?>
<!-- Uploaded to: SVG Repo, www.svgrepo.com, Generator: SVG Repo Mixer Tools -->
<svg version="1.1" id="Layer_1" xmlns="http://www.w3.org/2000/svg" xmlns:xlink="http://www.w3.org/1999/xlink" 
	 viewBox="0 0 512.002 512.002" xml:space="preserve">
<rect x="113.182" y="291.776" transform="matrix(-0.7071 -0.7071 0.7071 -0.7071 152.0654 700.5051)" style="fill:#28CC9E;" width="215.861" height="53.965"/>
<path style="fill:#20B0B7;" d="M374.071,89.493l76.001-76.001l0,0c42.15,42.15,42.15,110.488,0,152.638L278.353,337.848
	l-76.32-76.32l114.479-114.479"/>
<path style="fill:#315C7C;" d="M125.478,452.247c8.208-8.208,20.355-10.075,30.356-5.603c5.733,2.563,12.455,1.27,16.895-3.171
	l1.363-1.363c4.417-4.417,5.726-11.098,3.207-16.814c-4.394-9.971-2.512-22.04,5.657-30.209c8.169-8.169,20.237-10.052,30.209-5.657
	c5.716,2.519,12.397,1.21,16.814-3.207l10.216-10.216l-76.32-76.32L30.316,433.247l57.478,57.478
	c10.406,10.406,27.277,10.406,37.683,0l0,0C114.852,480.099,114.852,462.873,125.478,452.247z"/>
<path d="M332.832,123.43c0.337,0.809,0.756,1.605,1.241,2.334c0.486,0.729,1.052,1.43,1.673,2.051
	c0.621,0.621,1.321,1.187,2.051,1.673c0.742,0.486,1.525,0.904,2.334,1.241c0.809,0.337,1.658,0.594,2.523,0.769
	c0.876,0.175,1.754,0.27,2.629,0.27c0.89,0,1.769-0.094,2.644-0.27c0.865-0.175,1.715-0.432,2.523-0.769
	c0.811-0.337,1.593-0.756,2.334-1.241c0.729-0.486,1.43-1.052,2.051-1.673c0.621-0.621,1.174-1.322,1.673-2.051
	c0.486-0.729,0.904-1.525,1.241-2.334c0.337-0.809,0.594-1.659,0.769-2.523c0.175-0.863,0.255-1.754,0.255-2.631
	s-0.081-1.767-0.255-2.644c-0.175-0.85-0.432-1.7-0.769-2.523c-0.337-0.809-0.755-1.592-1.241-2.321
	c-0.499-0.742-1.052-1.43-1.673-2.051c-0.621-0.621-1.321-1.187-2.051-1.686c-0.742-0.486-1.525-0.904-2.334-1.241
	c-0.81-0.337-1.658-0.594-2.523-0.769c-1.739-0.351-3.533-0.351-5.274,0c-0.865,0.175-1.715,0.432-2.523,0.769
	c-0.811,0.337-1.593,0.756-2.334,1.241c-0.729,0.499-1.43,1.066-2.051,1.686c-0.621,0.621-1.187,1.309-1.673,2.051
	c-0.486,0.729-0.904,1.511-1.241,2.321c-0.337,0.823-0.594,1.673-0.769,2.523c-0.175,0.877-0.27,1.767-0.27,2.644
	s0.094,1.767,0.27,2.631C332.238,121.77,332.495,122.621,332.832,123.43z"/>
<path d="M495.176,89.81c0-32.433-12.629-62.925-35.563-85.859c-5.27-5.268-13.81-5.267-19.081,0L364.53,79.952
	c-5.268,5.268-5.268,13.811,0,19.081c5.27,5.268,13.81,5.268,19.081,0l65.79-65.79c12.198,16.24,18.794,35.895,18.794,56.567
	c0,25.226-9.823,48.942-27.661,66.78L278.353,318.768l-57.239-57.239l104.939-104.938c5.268-5.268,5.268-13.811,0-19.081
	c-5.27-5.268-13.81-5.268-19.081,0L202.035,242.448l-28.619-28.619c-5.268-5.268-13.811-5.268-19.081,0l-38.159,38.159
	c-5.268,5.268-5.268,13.811,0,19.081l28.619,28.619L20.778,423.707c-5.268,5.268-5.268,13.811,0,19.081l57.478,57.478
	c7.825,7.824,18.103,11.736,28.382,11.736s20.557-3.913,28.382-11.736c2.53-2.53,3.952-5.962,3.952-9.54
	c0-3.578-1.422-7.01-3.952-9.54c-2.59-2.59-4.018-6.035-4.018-9.698c0-3.664,1.427-7.109,4.018-9.699
	c3.999-3.998,10.152-5.132,15.309-2.826c10.746,4.804,23.582,2.415,31.941-5.946l1.367-1.365c8.313-8.313,10.73-21.091,6.012-31.795
	c-2.3-5.219-1.181-11.197,2.852-15.229c4.033-4.033,10.008-5.151,15.228-2.851c10.705,4.719,23.483,2.302,31.794-6.013l0.676-0.676
	l28.619,28.619c2.635,2.634,6.087,3.952,9.54,3.952c3.454,0,6.905-1.318,9.54-3.952l38.159-38.159
	c5.268-5.268,5.268-13.811,0-19.081l-28.619-28.619L459.613,175.67C482.546,152.736,495.176,122.244,495.176,89.81z
	 M220.437,376.684c-0.501,0.502-1.237,0.662-1.832,0.399c-15.487-6.825-33.224-3.502-45.19,8.463
	c-11.967,11.966-15.288,29.704-8.463,45.19c0.262,0.595,0.101,1.332-0.398,1.831l-1.367,1.365c-0.505,0.506-1.248,0.664-1.847,0.395
	c-15.303-6.844-33.549-3.477-45.404,8.377l0,0c-11.425,11.425-14.625,28.007-9.598,42.321c-3.269-0.074-6.515-1.355-9.004-3.844
	l-47.938-47.938l114.478-114.479l57.24,57.24L220.437,376.684z M278.353,395.088l-28.613-28.613
	c-0.003-0.003-0.004-0.004-0.007-0.007l-76.32-76.32c-0.003-0.003-0.005-0.004-0.007-0.007l-28.613-28.613l19.08-19.08
	l133.558,133.558L278.353,395.088z"/>
</svg>